<?xml version="1.0" encoding="utf-8"?>
<!-- Generator: Adobe Illustrator 27.3.1, SVG Export Plug-In . SVG Version: 6.00 Build 0)  -->
<svg version="1.1" id="Ebene_1" xmlns="http://www.w3.org/2000/svg" xmlns:xlink="http://www.w3.org/1999/xlink" x="0px" y="0px"
	 viewBox="0 0 512 512" style="enable-background:new 0 0 512 512;" xml:space="preserve">
<style type="text/css">
	.st0{fill:#FFFFFF;}
</style>
<path class="st0" d="M280,0c128.1,0,232,103.9,232,232c0,13.3-10.7,24-24,24s-24-10.7-24-24c0-101.6-82.4-184-184-184
	c-13.3,0-24-10.7-24-24S266.7,0,280,0z M288,192c17.7,0,32,14.3,32,32s-14.3,32-32,32s-32-14.3-32-32S270.3,192,288,192z M256,120
	c0-13.3,10.7-24,24-24c75.1,0,136,60.9,136,136c0,13.3-10.7,24-24,24s-24-10.7-24-24c0-48.6-39.4-88-88-88
	C266.7,144,256,133.3,256,120z M117.5,1.4c19.4-5.3,39.7,4.6,47.4,23.2l40,96c6.8,16.3,2.1,35.2-11.6,46.3L144,207.3
	c33.3,70.4,90.3,127.4,160.7,160.7l40.3-49.3c11.2-13.7,30-18.4,46.3-11.6l96,40c18.6,7.7,28.5,28,23.2,47.4l-24,88
	C481.8,499.9,466,512,448,512C200.6,512,0,311.4,0,64c0-18,12.1-33.8,29.5-38.6C29.5,25.4,117.5,1.4,117.5,1.4z"/>
</svg>
